# xmcd
#
# Track frame offsets: 
#        150
#        15220
#        33962
#        48810
#        67845
#        94575
#        108917
#        123700
#        143865
#        158907
#        175857
#
# Disc length: 2641 seconds
#
# Revision: 6
# Processed by: cddbd v1.5.2PL0 Copyright (c) Steve Scherf et al.
# Submitted via: ExactAudioCopy v1.1
#
DISCID=7f0a4f0b
DTITLE=BARBEE BOYS - LISTEN! BARBEE BOYS 4
DYEAR=1987
DGENRE=JPop
TTITLE0=はちあわせのメッカ
TTITLE1=泣いたままでlisten to me (ORIGINAL MIX)
TTITLE2=Dear わがまま エイリアン
TTITLE3=ごめんなさい
TTITLE4=女ぎつね on the Run (ORIGINAL "BIG BOWL" VERSION)
TTITLE5=わぁい わぁい わい
TTITLE6=涙で綴るパパへの手紙
TTITLE7=夜の街 -
TTITLE8=Noisy
TTITLE9=くちにチャック
TTITLE10=ナイーヴ
EXTD=YEAR: 1985
EXTT0=
EXTT1=
EXTT2=
EXTT3=
EXTT4=
EXTT5=
EXTT6=
EXTT7=
EXTT8=
EXTT9=
EXTT10=
PLAYORDER=
